<svg xmlns="http://www.w3.org/2000/svg" viewBox="0 0 1000 600"><rect width="1000" height="600" fill="#f9d342"/><g transform="matrix(1.37068 0 0 1.37068 0 -83.906)"><circle r="166.667" cx="257.862" cy="280.085" fill="#292826"/><path d="M251.515 355.085h-73.466V336.71h71.28q12.694 0 24.296-3.067 11.57-3.037 20.773-9.719 9.172-6.681 14.426-17.493 5.254-10.812 5.254-26.362 0-15.732-5.254-26.543-5.254-10.843-14.426-17.403-9.202-6.56-20.773-9.627-11.602-3.037-24.297-3.037h-71.28v-18.374h73.467q17.068 0 32.587 4.585 15.52 4.586 27.547 13.88 12.026 9.293 19.042 23.415 6.985 14.092 6.985 33.104 0 18.83-6.985 32.922-7.016 14.092-19.042 23.507-12.027 9.415-27.547 14-15.519 4.587-32.587 4.587Zm-22.505-10.721h-22.747V215.562h22.747v128.802Z" fill="#f9d342"/><path d="M585.953 311.434q-11.351 0-19.79-4.19-8.47-4.16-14.977-10.37-6.537-6.211-11.47-11.976v-15.184q4.933 5.973 11.47 11.44 6.508 5.468 14.115 8.885 7.577 3.417 15.927 3.417 7.696 0 14.115-2.674 6.418-2.674 11.143-7.607 4.694-4.903 7.28-11.53 2.555-6.656 2.555-14.768 0-10.281-3.952-17.977t-11.024-11.886q-7.072-4.16-16.254-3.952-8.35 0-16.7 4.933-8.35 4.903-15.51 13.371-7.162 8.44-12.51 19.582v-16.283q5.14-11.53 13.163-20.414 8.023-8.885 17.858-14.026 9.836-5.14 20.117-5.14 12.63 0 23.208 6.537 10.578 6.537 17.115 18.185 6.537 11.648 6.537 27.278 0 11.975-4.07 21.93-4.071 9.954-11.233 17.116-7.16 7.16-16.58 11.232-9.42 4.07-20.533 4.07Zm-11.767 43.65h-66.324v-16.907h66.324v16.908Zm-23.118-4.516h-20.741V207.67h20.74v142.898Zm-.862-125.99h-42.344V207.67h42.344v16.907Z" fill="#292826"/></g></svg>