<svg xmlns="http://www.w3.org/2000/svg" viewBox="0 0 1000 600"><rect width="1000" height="600" fill="#5f17d4"/><g transform="matrix(.6859 0 0 .6859 0 45.44)"><circle r="166.667" cx="348.908" cy="371.13" fill="#33c021"/><path d="M300.664 446.13v-150h41.902q27.517 0 41.037 18.922 13.55 18.922 13.55 56.078 0 37.187-13.55 56.079-13.52 18.921-41.037 18.921h-41.902Zm18.056-15.698h22.98q18.057 0 27.19-12.445 9.132-12.475 9.132-35.247v-23.22q0-22.77-9.133-35.216-9.132-12.475-27.188-12.475H318.72v118.603Z" fill="#5f17d4"/><path d="M598.908 443.773V305.999h38.487q25.274 0 37.692 17.38 12.445 17.378 12.445 51.507 0 34.155-12.445 51.507-12.418 17.38-37.692 17.38h-38.487Zm16.584-14.419H636.6q16.584 0 24.973-11.43 8.388-11.46 8.388-32.375v-21.327q0-20.915-8.388-32.346-8.389-11.458-24.973-11.458h-21.108v108.936Zm144.08 16.776q-11.048 0-19.847-3.728-8.772-3.755-14.995-10.773-6.222-6.99-9.566-16.776-3.372-9.759-3.372-21.793 0-12.253 3.454-22.122 3.454-9.868 9.594-16.858 6.113-7.018 14.693-10.773 8.58-3.756 19.052-3.756 10.252 0 18.64 3.756 8.388 3.755 14.31 10.362 5.92 6.606 9.073 15.707 3.18 9.073 3.18 19.929v7.483h-75.412v4.743q0 6.716 2.166 12.445 2.193 5.729 6.222 9.868 4.057 4.14 9.869 6.415 5.839 2.275 12.938 2.275 10.253 0 17.764-4.743 7.483-4.742 11.43-13.02l11.65 7.894q-4.522 10.253-15.103 16.859-10.554 6.606-25.74 6.606Zm-.987-93.53q-6.525 0-12.034 2.357-5.538 2.358-9.595 6.524-4.03 4.14-6.305 9.759-2.275 5.62-2.275 12.335v1.371h58.416v-2.165q0-6.716-2.056-12.226-2.083-5.538-5.73-9.567-3.645-4.057-8.88-6.223-5.237-2.165-11.541-2.165Zm123.93-33.17q-6.907 0-9.649-2.85-2.768-2.878-2.768-7.21v-3.152q0-4.359 2.768-7.21 2.742-2.878 9.65-2.878 6.907 0 9.676 2.879 2.769 2.85 2.769 7.209v3.152q0 4.332-2.769 7.21-2.769 2.85-9.677 2.85Zm-44.6 124.343V430.34h36.706v-75h-36.705v-13.405h52.494v88.405h34.348v13.432h-86.842Zm122.78 0h-14.61V341.936h14.61v11.842h.768q2.385-5.92 6.716-10.06 4.358-4.167 12.829-4.167 8.881 0 13.24 4.441 4.331 4.44 5.318 11.568h.603q2.741-6.908 7.895-11.458 5.126-4.55 14.2-4.55 12.444 0 16.666 8.689 4.249 8.69 4.249 24.863v70.669h-14.61V375.68q0-13.021-2.66-18.065-2.659-5.016-9.759-5.016-6.332 0-10.28 4.03-3.947 4.056-3.947 12.335v74.808H987.34V375.68q0-13.021-2.686-18.065-2.66-5.016-9.567-5.016-6.305 0-10.362 4.03-4.03 4.056-4.03 12.335v74.808Zm152.358 2.357q-10.664 0-19.244-3.728-8.58-3.755-14.61-10.773-6.004-6.99-9.184-16.776-3.152-9.759-3.152-22.012 0-12.034 3.152-21.903 3.18-9.868 9.184-16.858 6.03-7.018 14.61-10.773 8.58-3.756 19.244-3.756 10.663 0 19.243 3.756 8.58 3.755 14.61 10.773 6.004 6.99 9.184 16.858 3.152 9.869 3.152 21.903 0 12.253-3.152 22.012-3.18 9.786-9.183 16.776-6.03 7.018-14.61 10.773-8.58 3.728-19.244 3.728Zm0-13.596q13.212 0 21.327-7.895 8.086-7.895 8.086-24.48v-14.61q0-16.584-8.086-24.479-8.115-7.895-21.327-7.895-13.213 0-21.327 7.895-8.087 7.895-8.087 24.48v14.61q0 16.584 8.087 24.48 8.114 7.894 21.327 7.894Zm119.6 13.596q-15.982 0-27.522-5.427-11.541-5.428-19.655-14.501l10.663-9.266q7.32 7.703 15.982 11.842 8.69 4.14 20.943 4.14 11.842 0 19.435-4.25 7.593-4.248 7.593-13.322 0-3.947-1.48-6.606t-4.057-4.249q-2.55-1.562-5.702-2.467-3.18-.877-6.716-1.48l-15.981-2.358q-5.346-.795-11.568-2.165-6.195-1.398-11.349-4.441-5.126-3.07-8.58-8.196-3.454-5.127-3.454-13.432 0-7.703 3.07-13.323 3.043-5.62 8.58-9.457 5.538-3.865 13.021-5.73 7.511-1.89 16.393-1.89 13.816 0 23.985 4.358 10.143 4.331 17.462 12.034l-10.28 9.676q-1.754-2.165-4.44-4.44-2.66-2.276-6.497-4.14-3.865-1.891-8.991-3.07-5.126-1.179-11.842-1.179-12.034 0-18.449 4.14-6.414 4.139-6.414 12.034 0 3.947 1.48 6.606 1.48 2.686 4.057 4.249 2.55 1.59 5.811 2.467 3.262.905 6.607 1.48l15.981 2.385q5.537.768 11.65 2.166 6.113 1.37 11.267 4.44 5.126 3.043 8.58 8.197 3.454 5.126 3.454 13.404 0 15.214-11.76 23.493-11.733 8.278-31.277 8.278Z" fill="#33c021"/></g></svg>